<?xml version="1.0" encoding="UTF-8" standalone="no"?>
<!DOCTYPE svg PUBLIC "-//W3C//DTD SVG 1.1//EN"
 "http://www.w3.org/Graphics/SVG/1.1/DTD/svg11.dtd">
<!-- Generated by graphviz version 2.36.0 (20140111.2315)
 -->
<!-- Title: G Pages: 1 -->
<svg width="482pt" height="906pt"
 viewBox="0.00 0.00 482.00 906.00" xmlns="http://www.w3.org/2000/svg" xmlns:xlink="http://www.w3.org/1999/xlink">
<g id="graph0" class="graph" transform="scale(1 1) rotate(0) translate(4 902)">
<title>G</title>
<polygon fill="white" stroke="none" points="-4,4 -4,-902 478,-902 478,4 -4,4"/>
<g id="clust1" class="cluster"><title>cluster_Global</title>
<path fill="none" stroke="gray" d="M282,-8C282,-8 454,-8 454,-8 460,-8 466,-14 466,-20 466,-20 466,-878 466,-878 466,-884 460,-890 454,-890 454,-890 282,-890 282,-890 276,-890 270,-884 270,-878 270,-878 270,-20 270,-20 270,-14 276,-8 282,-8"/>
<text text-anchor="middle" x="368" y="-877.2" font-family="Times,serif" font-size="11.00" fill="gray">Global</text>
</g>
<!-- \\ilQuestionTableGUI -->
<g id="node1" class="node"><title>\\ilQuestionTableGUI</title>
<polygon fill="none" stroke="black" points="437,-862 299,-862 299,-826 437,-826 437,-862"/>
<text text-anchor="middle" x="368" y="-841.2" font-family="Courier,monospace" font-size="11.00">ilQuestionTableGUI</text>
</g>
<!-- \\ilTable2GUI -->
<g id="node17" class="node"><title>\\ilTable2GUI</title>
<ellipse fill="none" stroke="black" cx="103" cy="-763" rx="57.6901" ry="18"/>
<text text-anchor="middle" x="103" y="-759.3" font-family="Times,serif" font-size="14.00" fill="gray">\ilTable2GUI</text>
</g>
<!-- \\ilQuestionTableGUI&#45;&gt;\\ilTable2GUI -->
<g id="edge1" class="edge"><title>\\ilQuestionTableGUI&#45;&gt;\\ilTable2GUI</title>
<path fill="none" stroke="black" d="M300.623,-825.933C290.349,-823.019 279.874,-819.979 270,-817 230.296,-805.022 185.606,-790.42 152.606,-779.421"/>
<polygon fill="none" stroke="black" points="153.352,-775.981 142.759,-776.131 151.134,-782.62 153.352,-775.981"/>
</g>
<!-- \\ilObjReviewGUI -->
<g id="node2" class="node"><title>\\ilObjReviewGUI</title>
<polygon fill="none" stroke="black" points="423.5,-646 312.5,-646 312.5,-610 423.5,-610 423.5,-646"/>
<text text-anchor="middle" x="368" y="-625.2" font-family="Courier,monospace" font-size="11.00">ilObjReviewGUI</text>
</g>
<!-- \\ilObjectPluginGUI -->
<g id="node18" class="node"><title>\\ilObjectPluginGUI</title>
<ellipse fill="none" stroke="black" cx="103" cy="-628" rx="79.8859" ry="18"/>
<text text-anchor="middle" x="103" y="-624.3" font-family="Times,serif" font-size="14.00" fill="gray">\ilObjectPluginGUI</text>
</g>
<!-- \\ilObjReviewGUI&#45;&gt;\\ilObjectPluginGUI -->
<g id="edge2" class="edge"><title>\\ilObjReviewGUI&#45;&gt;\\ilObjectPluginGUI</title>
<path fill="none" stroke="black" d="M312.187,-628C277.842,-628 232.769,-628 193.348,-628"/>
<polygon fill="none" stroke="black" points="193.193,-624.5 183.193,-628 193.193,-631.5 193.193,-624.5"/>
</g>
<!-- \\ilObjReview -->
<g id="node3" class="node"><title>\\ilObjReview</title>
<polygon fill="none" stroke="black" points="413.5,-592 322.5,-592 322.5,-556 413.5,-556 413.5,-592"/>
<text text-anchor="middle" x="368" y="-571.2" font-family="Courier,monospace" font-size="11.00">ilObjReview</text>
</g>
<!-- \\ilObjectPlugin -->
<g id="node19" class="node"><title>\\ilObjectPlugin</title>
<ellipse fill="none" stroke="black" cx="103" cy="-574" rx="64.189" ry="18"/>
<text text-anchor="middle" x="103" y="-570.3" font-family="Times,serif" font-size="14.00" fill="gray">\ilObjectPlugin</text>
</g>
<!-- \\ilObjReview&#45;&gt;\\ilObjectPlugin -->
<g id="edge3" class="edge"><title>\\ilObjReview&#45;&gt;\\ilObjectPlugin</title>
<path fill="none" stroke="black" d="M322.386,-574C282.791,-574 224.173,-574 177.634,-574"/>
<polygon fill="none" stroke="black" points="177.597,-570.5 167.597,-574 177.597,-577.5 177.597,-570.5"/>
</g>
<!-- \\ilAspectListGUI -->
<g id="node4" class="node"><title>\\ilAspectListGUI</title>
<polygon fill="none" stroke="black" points="427,-430 309,-430 309,-394 427,-394 427,-430"/>
<text text-anchor="middle" x="368" y="-409.2" font-family="Courier,monospace" font-size="11.00">ilAspectListGUI</text>
</g>
<!-- \\ilCustomInputGUI -->
<g id="node20" class="node"><title>\\ilCustomInputGUI</title>
<ellipse fill="none" stroke="black" cx="103" cy="-385" rx="79.8859" ry="18"/>
<text text-anchor="middle" x="103" y="-381.3" font-family="Times,serif" font-size="14.00" fill="gray">\ilCustomInputGUI</text>
</g>
<!-- \\ilAspectListGUI&#45;&gt;\\ilCustomInputGUI -->
<g id="edge4" class="edge"><title>\\ilAspectListGUI&#45;&gt;\\ilCustomInputGUI</title>
<path fill="none" stroke="black" d="M308.958,-406.041C272.84,-402.333 225.835,-397.508 185.953,-393.413"/>
<polygon fill="none" stroke="black" points="186.283,-389.929 175.978,-392.389 185.568,-396.892 186.283,-389.929"/>
</g>
<!-- \\ilObjReviewAccess -->
<g id="node5" class="node"><title>\\ilObjReviewAccess</title>
<polygon fill="none" stroke="black" points="433.5,-268 302.5,-268 302.5,-232 433.5,-232 433.5,-268"/>
<text text-anchor="middle" x="368" y="-247.2" font-family="Courier,monospace" font-size="11.00">ilObjReviewAccess</text>
</g>
<!-- \\ilObjectPluginAccess -->
<g id="node21" class="node"><title>\\ilObjectPluginAccess</title>
<ellipse fill="none" stroke="black" cx="103" cy="-250" rx="89.0842" ry="18"/>
<text text-anchor="middle" x="103" y="-246.3" font-family="Times,serif" font-size="14.00" fill="gray">\ilObjectPluginAccess</text>
</g>
<!-- \\ilObjReviewAccess&#45;&gt;\\ilObjectPluginAccess -->
<g id="edge5" class="edge"><title>\\ilObjReviewAccess&#45;&gt;\\ilObjectPluginAccess</title>
<path fill="none" stroke="black" d="M302.326,-250C272.278,-250 235.89,-250 202.529,-250"/>
<polygon fill="none" stroke="black" points="202.283,-246.5 192.283,-250 202.282,-253.5 202.283,-246.5"/>
</g>
<!-- \\ilAspectHeadGUI -->
<g id="node6" class="node"><title>\\ilAspectHeadGUI</title>
<polygon fill="none" stroke="black" points="427,-376 309,-376 309,-340 427,-340 427,-376"/>
<text text-anchor="middle" x="368" y="-355.2" font-family="Courier,monospace" font-size="11.00">ilAspectHeadGUI</text>
</g>
<!-- \\ilAspectHeadGUI&#45;&gt;\\ilCustomInputGUI -->
<g id="edge6" class="edge"><title>\\ilAspectHeadGUI&#45;&gt;\\ilCustomInputGUI</title>
<path fill="none" stroke="black" d="M308.958,-363.959C272.84,-367.667 225.835,-372.492 185.953,-376.587"/>
<polygon fill="none" stroke="black" points="185.568,-373.108 175.978,-377.611 186.283,-380.071 185.568,-373.108"/>
</g>
<!-- \\ilQuestionOverviewGUI -->
<g id="node7" class="node"><title>\\ilQuestionOverviewGUI</title>
<polygon fill="none" stroke="black" points="447,-538 289,-538 289,-502 447,-502 447,-538"/>
<text text-anchor="middle" x="368" y="-517.2" font-family="Courier,monospace" font-size="11.00">ilQuestionOverviewGUI</text>
</g>
<!-- \\ilReviewOutputGUI -->
<g id="node8" class="node"><title>\\ilReviewOutputGUI</title>
<polygon fill="none" stroke="black" points="433.5,-808 302.5,-808 302.5,-772 433.5,-772 433.5,-808"/>
<text text-anchor="middle" x="368" y="-787.2" font-family="Courier,monospace" font-size="11.00">ilReviewOutputGUI</text>
</g>
<!-- \\ilReviewOutputGUI&#45;&gt;\\ilTable2GUI -->
<g id="edge7" class="edge"><title>\\ilReviewOutputGUI&#45;&gt;\\ilTable2GUI</title>
<path fill="none" stroke="black" d="M302.326,-783.36C261.525,-779.172 209.033,-773.783 168.303,-769.601"/>
<polygon fill="none" stroke="black" points="168.521,-766.105 158.215,-768.566 167.806,-773.069 168.521,-766.105"/>
</g>
<!-- \\ilReviewTableGUI -->
<g id="node9" class="node"><title>\\ilReviewTableGUI</title>
<polygon fill="none" stroke="black" points="430.5,-754 305.5,-754 305.5,-718 430.5,-718 430.5,-754"/>
<text text-anchor="middle" x="368" y="-733.2" font-family="Courier,monospace" font-size="11.00">ilReviewTableGUI</text>
</g>
<!-- \\ilReviewTableGUI&#45;&gt;\\ilTable2GUI -->
<g id="edge8" class="edge"><title>\\ilReviewTableGUI&#45;&gt;\\ilTable2GUI</title>
<path fill="none" stroke="black" d="M305.338,-742.33C264.101,-746.564 209.957,-752.122 168.204,-756.409"/>
<polygon fill="none" stroke="black" points="167.733,-752.939 158.143,-757.442 168.448,-759.902 167.733,-752.939"/>
</g>
<!-- \\ilQuestionFinishTableGUI -->
<g id="node10" class="node"><title>\\ilQuestionFinishTableGUI</title>
<polygon fill="none" stroke="black" points="457.5,-700 278.5,-700 278.5,-664 457.5,-664 457.5,-700"/>
<text text-anchor="middle" x="368" y="-679.2" font-family="Courier,monospace" font-size="11.00">ilQuestionFinishTableGUI</text>
</g>
<!-- \\ilQuestionFinishTableGUI&#45;&gt;\\ilTable2GUI -->
<g id="edge9" class="edge"><title>\\ilQuestionFinishTableGUI&#45;&gt;\\ilTable2GUI</title>
<path fill="none" stroke="black" d="M300.623,-700.067C290.349,-702.981 279.874,-706.021 270,-709 230.296,-720.978 185.606,-735.58 152.606,-746.579"/>
<polygon fill="none" stroke="black" points="151.134,-743.38 142.759,-749.869 153.352,-750.019 151.134,-743.38"/>
</g>
<!-- \\ilCheckMatrixRowGUI -->
<g id="node11" class="node"><title>\\ilCheckMatrixRowGUI</title>
<polygon fill="none" stroke="black" points="440.5,-484 295.5,-484 295.5,-448 440.5,-448 440.5,-484"/>
<text text-anchor="middle" x="368" y="-463.2" font-family="Courier,monospace" font-size="11.00">ilCheckMatrixRowGUI</text>
</g>
<!-- \\ilCheckMatrixRowGUI&#45;&gt;\\ilCustomInputGUI -->
<g id="edge10" class="edge"><title>\\ilCheckMatrixRowGUI&#45;&gt;\\ilCustomInputGUI</title>
<path fill="none" stroke="black" d="M300.623,-447.933C290.349,-445.019 279.874,-441.979 270,-439 232.399,-427.657 190.327,-413.96 157.947,-403.199"/>
<polygon fill="none" stroke="black" points="158.819,-399.8 148.225,-399.959 156.606,-406.441 158.819,-399.8"/>
</g>
<!-- \\ilReviewInputGUI -->
<g id="node12" class="node"><title>\\ilReviewInputGUI</title>
<polygon fill="none" stroke="black" points="430.5,-214 305.5,-214 305.5,-178 430.5,-178 430.5,-214"/>
<text text-anchor="middle" x="368" y="-193.2" font-family="Courier,monospace" font-size="11.00">ilReviewInputGUI</text>
</g>
<!-- \\ilPropertyFormGUI -->
<g id="node22" class="node"><title>\\ilPropertyFormGUI</title>
<ellipse fill="none" stroke="black" cx="103" cy="-196" rx="83.3857" ry="18"/>
<text text-anchor="middle" x="103" y="-192.3" font-family="Times,serif" font-size="14.00" fill="gray">\ilPropertyFormGUI</text>
</g>
<!-- \\ilReviewInputGUI&#45;&gt;\\ilPropertyFormGUI -->
<g id="edge11" class="edge"><title>\\ilReviewInputGUI&#45;&gt;\\ilPropertyFormGUI</title>
<path fill="none" stroke="black" d="M305.338,-196C273.003,-196 232.731,-196 196.72,-196"/>
<polygon fill="none" stroke="black" points="196.686,-192.5 186.686,-196 196.686,-199.5 196.686,-192.5"/>
</g>
<!-- \\ilAspectSelectInputGUI -->
<g id="node13" class="node"><title>\\ilAspectSelectInputGUI</title>
<polygon fill="none" stroke="black" points="450.5,-322 285.5,-322 285.5,-286 450.5,-286 450.5,-322"/>
<text text-anchor="middle" x="368" y="-301.2" font-family="Courier,monospace" font-size="11.00">ilAspectSelectInputGUI</text>
</g>
<!-- \\ilAspectSelectInputGUI&#45;&gt;\\ilCustomInputGUI -->
<g id="edge12" class="edge"><title>\\ilAspectSelectInputGUI&#45;&gt;\\ilCustomInputGUI</title>
<path fill="none" stroke="black" d="M300.623,-322.067C290.349,-324.981 279.874,-328.021 270,-331 232.399,-342.343 190.327,-356.04 157.947,-366.801"/>
<polygon fill="none" stroke="black" points="156.606,-363.559 148.225,-370.041 158.819,-370.2 156.606,-363.559"/>
</g>
<!-- \\ilReviewPlugin -->
<g id="node14" class="node"><title>\\ilReviewPlugin</title>
<polygon fill="none" stroke="black" points="423.5,-160 312.5,-160 312.5,-124 423.5,-124 423.5,-160"/>
<text text-anchor="middle" x="368" y="-139.2" font-family="Courier,monospace" font-size="11.00">ilReviewPlugin</text>
</g>
<!-- \\ilRepositoryObjectPlugin -->
<g id="node23" class="node"><title>\\ilRepositoryObjectPlugin</title>
<ellipse fill="none" stroke="black" cx="103" cy="-142" rx="102.882" ry="18"/>
<text text-anchor="middle" x="103" y="-138.3" font-family="Times,serif" font-size="14.00" fill="gray">\ilRepositoryObjectPlugin</text>
</g>
<!-- \\ilReviewPlugin&#45;&gt;\\ilRepositoryObjectPlugin -->
<g id="edge13" class="edge"><title>\\ilReviewPlugin&#45;&gt;\\ilRepositoryObjectPlugin</title>
<path fill="none" stroke="black" d="M312.187,-142C284.287,-142 249.308,-142 216.03,-142"/>
<polygon fill="none" stroke="black" points="215.767,-138.5 205.767,-142 215.767,-145.5 215.767,-138.5"/>
</g>
<!-- \\ilExampleConfigGUI -->
<g id="node15" class="node"><title>\\ilExampleConfigGUI</title>
<polygon fill="none" stroke="black" points="437,-106 299,-106 299,-70 437,-70 437,-106"/>
<text text-anchor="middle" x="368" y="-85.2" font-family="Courier,monospace" font-size="11.00">ilExampleConfigGUI</text>
</g>
<!-- \\ilPluginConfigGUI -->
<g id="node24" class="node"><title>\\ilPluginConfigGUI</title>
<ellipse fill="none" stroke="black" cx="103" cy="-88" rx="81.4863" ry="18"/>
<text text-anchor="middle" x="103" y="-84.3" font-family="Times,serif" font-size="14.00" fill="gray">\ilPluginConfigGUI</text>
</g>
<!-- \\ilExampleConfigGUI&#45;&gt;\\ilPluginConfigGUI -->
<g id="edge14" class="edge"><title>\\ilExampleConfigGUI&#45;&gt;\\ilPluginConfigGUI</title>
<path fill="none" stroke="black" d="M298.929,-88C267.068,-88 228.675,-88 194.417,-88"/>
<polygon fill="none" stroke="black" points="194.404,-84.5001 184.403,-88 194.403,-91.5001 194.404,-84.5001"/>
</g>
<!-- \\ilObjReviewListGUI -->
<g id="node16" class="node"><title>\\ilObjReviewListGUI</title>
<polygon fill="none" stroke="black" points="437,-52 299,-52 299,-16 437,-16 437,-52"/>
<text text-anchor="middle" x="368" y="-31.2" font-family="Courier,monospace" font-size="11.00">ilObjReviewListGUI</text>
</g>
<!-- \\ilObjectPluginListGUI -->
<g id="node25" class="node"><title>\\ilObjectPluginListGUI</title>
<ellipse fill="none" stroke="black" cx="103" cy="-34" rx="93.6835" ry="18"/>
<text text-anchor="middle" x="103" y="-30.3" font-family="Times,serif" font-size="14.00" fill="gray">\ilObjectPluginListGUI</text>
</g>
<!-- \\ilObjReviewListGUI&#45;&gt;\\ilObjectPluginListGUI -->
<g id="edge15" class="edge"><title>\\ilObjReviewListGUI&#45;&gt;\\ilObjectPluginListGUI</title>
<path fill="none" stroke="black" d="M298.929,-34C271.034,-34 238.131,-34 207.38,-34"/>
<polygon fill="none" stroke="black" points="207.045,-30.5001 197.045,-34 207.045,-37.5001 207.045,-30.5001"/>
</g>
</g>
</svg>
