<?xml version="1.0" encoding="UTF-8" standalone="no"?>
<!DOCTYPE svg PUBLIC "-//W3C//DTD SVG 1.1//EN"
 "http://www.w3.org/Graphics/SVG/1.1/DTD/svg11.dtd">
<!-- Generated by graphviz version 2.36.0 (20140111.2315)
 -->
<!-- Title: G Pages: 1 -->
<svg width="482pt" height="798pt"
 viewBox="0.00 0.00 482.00 798.00" xmlns="http://www.w3.org/2000/svg" xmlns:xlink="http://www.w3.org/1999/xlink">
<g id="graph0" class="graph" transform="scale(1 1) rotate(0) translate(4 794)">
<title>G</title>
<polygon fill="white" stroke="none" points="-4,4 -4,-794 478,-794 478,4 -4,4"/>
<g id="clust1" class="cluster"><title>cluster_Global</title>
<path fill="none" stroke="gray" d="M282,-8C282,-8 454,-8 454,-8 460,-8 466,-14 466,-20 466,-20 466,-770 466,-770 466,-776 460,-782 454,-782 454,-782 282,-782 282,-782 276,-782 270,-776 270,-770 270,-770 270,-20 270,-20 270,-14 276,-8 282,-8"/>
<text text-anchor="middle" x="368" y="-769.2" font-family="Times,serif" font-size="11.00" fill="gray">Global</text>
</g>
<!-- \\ilReviewPlugin -->
<g id="node1" class="node"><title>\\ilReviewPlugin</title>
<polygon fill="none" stroke="black" points="423.5,-754 312.5,-754 312.5,-718 423.5,-718 423.5,-754"/>
<text text-anchor="middle" x="368" y="-733.2" font-family="Courier,monospace" font-size="11.00">ilReviewPlugin</text>
</g>
<!-- \\ilRepositoryObjectPlugin -->
<g id="node15" class="node"><title>\\ilRepositoryObjectPlugin</title>
<ellipse fill="none" stroke="black" cx="103" cy="-736" rx="102.882" ry="18"/>
<text text-anchor="middle" x="103" y="-732.3" font-family="Times,serif" font-size="14.00" fill="gray">\ilRepositoryObjectPlugin</text>
</g>
<!-- \\ilReviewPlugin&#45;&gt;\\ilRepositoryObjectPlugin -->
<g id="edge1" class="edge"><title>\\ilReviewPlugin&#45;&gt;\\ilRepositoryObjectPlugin</title>
<path fill="none" stroke="black" d="M312.187,-736C284.287,-736 249.308,-736 216.03,-736"/>
<polygon fill="none" stroke="black" points="215.767,-732.5 205.767,-736 215.767,-739.5 215.767,-732.5"/>
</g>
<!-- \\ilObjReviewAccess -->
<g id="node2" class="node"><title>\\ilObjReviewAccess</title>
<polygon fill="none" stroke="black" points="433.5,-700 302.5,-700 302.5,-664 433.5,-664 433.5,-700"/>
<text text-anchor="middle" x="368" y="-679.2" font-family="Courier,monospace" font-size="11.00">ilObjReviewAccess</text>
</g>
<!-- \\ilObjectPluginAccess -->
<g id="node16" class="node"><title>\\ilObjectPluginAccess</title>
<ellipse fill="none" stroke="black" cx="103" cy="-682" rx="89.0842" ry="18"/>
<text text-anchor="middle" x="103" y="-678.3" font-family="Times,serif" font-size="14.00" fill="gray">\ilObjectPluginAccess</text>
</g>
<!-- \\ilObjReviewAccess&#45;&gt;\\ilObjectPluginAccess -->
<g id="edge2" class="edge"><title>\\ilObjReviewAccess&#45;&gt;\\ilObjectPluginAccess</title>
<path fill="none" stroke="black" d="M302.326,-682C272.278,-682 235.89,-682 202.529,-682"/>
<polygon fill="none" stroke="black" points="202.283,-678.5 192.283,-682 202.282,-685.5 202.283,-678.5"/>
</g>
<!-- \\ilObjReviewListGUI -->
<g id="node3" class="node"><title>\\ilObjReviewListGUI</title>
<polygon fill="none" stroke="black" points="437,-646 299,-646 299,-610 437,-610 437,-646"/>
<text text-anchor="middle" x="368" y="-625.2" font-family="Courier,monospace" font-size="11.00">ilObjReviewListGUI</text>
</g>
<!-- \\ilObjectPluginListGUI -->
<g id="node17" class="node"><title>\\ilObjectPluginListGUI</title>
<ellipse fill="none" stroke="black" cx="103" cy="-628" rx="93.6835" ry="18"/>
<text text-anchor="middle" x="103" y="-624.3" font-family="Times,serif" font-size="14.00" fill="gray">\ilObjectPluginListGUI</text>
</g>
<!-- \\ilObjReviewListGUI&#45;&gt;\\ilObjectPluginListGUI -->
<g id="edge3" class="edge"><title>\\ilObjReviewListGUI&#45;&gt;\\ilObjectPluginListGUI</title>
<path fill="none" stroke="black" d="M298.929,-628C271.034,-628 238.131,-628 207.38,-628"/>
<polygon fill="none" stroke="black" points="207.045,-624.5 197.045,-628 207.045,-631.5 207.045,-624.5"/>
</g>
<!-- \\ilReviewOutputGUI -->
<g id="node4" class="node"><title>\\ilReviewOutputGUI</title>
<polygon fill="none" stroke="black" points="433.5,-484 302.5,-484 302.5,-448 433.5,-448 433.5,-484"/>
<text text-anchor="middle" x="368" y="-463.2" font-family="Courier,monospace" font-size="11.00">ilReviewOutputGUI</text>
</g>
<!-- \\ilTable2GUI -->
<g id="node18" class="node"><title>\\ilTable2GUI</title>
<ellipse fill="none" stroke="black" cx="103" cy="-493" rx="57.6901" ry="18"/>
<text text-anchor="middle" x="103" y="-489.3" font-family="Times,serif" font-size="14.00" fill="gray">\ilTable2GUI</text>
</g>
<!-- \\ilReviewOutputGUI&#45;&gt;\\ilTable2GUI -->
<g id="edge4" class="edge"><title>\\ilReviewOutputGUI&#45;&gt;\\ilTable2GUI</title>
<path fill="none" stroke="black" d="M302.326,-472.64C261.525,-476.828 209.033,-482.217 168.303,-486.399"/>
<polygon fill="none" stroke="black" points="167.806,-482.931 158.215,-487.434 168.521,-489.895 167.806,-482.931"/>
</g>
<!-- \\ilCheckMatrixRowGUI -->
<g id="node5" class="node"><title>\\ilCheckMatrixRowGUI</title>
<polygon fill="none" stroke="black" points="440.5,-214 295.5,-214 295.5,-178 440.5,-178 440.5,-214"/>
<text text-anchor="middle" x="368" y="-193.2" font-family="Courier,monospace" font-size="11.00">ilCheckMatrixRowGUI</text>
</g>
<!-- \\ilCustomInputGUI -->
<g id="node19" class="node"><title>\\ilCustomInputGUI</title>
<ellipse fill="none" stroke="black" cx="103" cy="-250" rx="79.8859" ry="18"/>
<text text-anchor="middle" x="103" y="-246.3" font-family="Times,serif" font-size="14.00" fill="gray">\ilCustomInputGUI</text>
</g>
<!-- \\ilCheckMatrixRowGUI&#45;&gt;\\ilCustomInputGUI -->
<g id="edge5" class="edge"><title>\\ilCheckMatrixRowGUI&#45;&gt;\\ilCustomInputGUI</title>
<path fill="none" stroke="black" d="M295.481,-210.684C257.223,-218.54 210.343,-228.165 172.545,-235.926"/>
<polygon fill="none" stroke="black" points="171.734,-232.519 162.643,-237.959 173.142,-239.376 171.734,-232.519"/>
</g>
<!-- \\ilQuestionTableGUI -->
<g id="node6" class="node"><title>\\ilQuestionTableGUI</title>
<polygon fill="none" stroke="black" points="437,-430 299,-430 299,-394 437,-394 437,-430"/>
<text text-anchor="middle" x="368" y="-409.2" font-family="Courier,monospace" font-size="11.00">ilQuestionTableGUI</text>
</g>
<!-- \\ilQuestionTableGUI&#45;&gt;\\ilTable2GUI -->
<g id="edge6" class="edge"><title>\\ilQuestionTableGUI&#45;&gt;\\ilTable2GUI</title>
<path fill="none" stroke="black" d="M300.623,-430.067C290.349,-432.981 279.874,-436.021 270,-439 230.296,-450.978 185.606,-465.58 152.606,-476.579"/>
<polygon fill="none" stroke="black" points="151.134,-473.38 142.759,-479.869 153.352,-480.019 151.134,-473.38"/>
</g>
<!-- \\ilReviewTableGUI -->
<g id="node7" class="node"><title>\\ilReviewTableGUI</title>
<polygon fill="none" stroke="black" points="430.5,-592 305.5,-592 305.5,-556 430.5,-556 430.5,-592"/>
<text text-anchor="middle" x="368" y="-571.2" font-family="Courier,monospace" font-size="11.00">ilReviewTableGUI</text>
</g>
<!-- \\ilReviewTableGUI&#45;&gt;\\ilTable2GUI -->
<g id="edge7" class="edge"><title>\\ilReviewTableGUI&#45;&gt;\\ilTable2GUI</title>
<path fill="none" stroke="black" d="M305.308,-557.258C293.559,-553.947 281.38,-550.433 270,-547 230.296,-535.022 185.606,-520.42 152.606,-509.421"/>
<polygon fill="none" stroke="black" points="153.352,-505.981 142.759,-506.131 151.134,-512.62 153.352,-505.981"/>
</g>
<!-- \\ilAspectHeadGUI -->
<g id="node8" class="node"><title>\\ilAspectHeadGUI</title>
<polygon fill="none" stroke="black" points="427,-376 309,-376 309,-340 427,-340 427,-376"/>
<text text-anchor="middle" x="368" y="-355.2" font-family="Courier,monospace" font-size="11.00">ilAspectHeadGUI</text>
</g>
<!-- \\ilAspectHeadGUI&#45;&gt;\\ilCustomInputGUI -->
<g id="edge8" class="edge"><title>\\ilAspectHeadGUI&#45;&gt;\\ilCustomInputGUI</title>
<path fill="none" stroke="black" d="M308.993,-343.717C296.016,-340.008 282.421,-335.714 270,-331 225.057,-313.944 175.828,-289.088 142.744,-271.416"/>
<polygon fill="none" stroke="black" points="144.322,-268.291 133.857,-266.635 141.005,-274.455 144.322,-268.291"/>
</g>
<!-- \\ilQuestionOverviewGUI -->
<g id="node9" class="node"><title>\\ilQuestionOverviewGUI</title>
<polygon fill="none" stroke="black" points="447,-322 289,-322 289,-286 447,-286 447,-322"/>
<text text-anchor="middle" x="368" y="-301.2" font-family="Courier,monospace" font-size="11.00">ilQuestionOverviewGUI</text>
</g>
<!-- \\ilQuestionFinishTableGUI -->
<g id="node10" class="node"><title>\\ilQuestionFinishTableGUI</title>
<polygon fill="none" stroke="black" points="457.5,-538 278.5,-538 278.5,-502 457.5,-502 457.5,-538"/>
<text text-anchor="middle" x="368" y="-517.2" font-family="Courier,monospace" font-size="11.00">ilQuestionFinishTableGUI</text>
</g>
<!-- \\ilQuestionFinishTableGUI&#45;&gt;\\ilTable2GUI -->
<g id="edge9" class="edge"><title>\\ilQuestionFinishTableGUI&#45;&gt;\\ilTable2GUI</title>
<path fill="none" stroke="black" d="M278.327,-510.897C242.243,-507.192 201.33,-502.992 168.212,-499.592"/>
<polygon fill="none" stroke="black" points="168.503,-496.104 158.198,-498.564 167.788,-503.067 168.503,-496.104"/>
</g>
<!-- \\ilReviewInputGUI -->
<g id="node11" class="node"><title>\\ilReviewInputGUI</title>
<polygon fill="none" stroke="black" points="430.5,-160 305.5,-160 305.5,-124 430.5,-124 430.5,-160"/>
<text text-anchor="middle" x="368" y="-139.2" font-family="Courier,monospace" font-size="11.00">ilReviewInputGUI</text>
</g>
<!-- \\ilPropertyFormGUI -->
<g id="node20" class="node"><title>\\ilPropertyFormGUI</title>
<ellipse fill="none" stroke="black" cx="103" cy="-142" rx="83.3857" ry="18"/>
<text text-anchor="middle" x="103" y="-138.3" font-family="Times,serif" font-size="14.00" fill="gray">\ilPropertyFormGUI</text>
</g>
<!-- \\ilReviewInputGUI&#45;&gt;\\ilPropertyFormGUI -->
<g id="edge10" class="edge"><title>\\ilReviewInputGUI&#45;&gt;\\ilPropertyFormGUI</title>
<path fill="none" stroke="black" d="M305.338,-142C273.003,-142 232.731,-142 196.72,-142"/>
<polygon fill="none" stroke="black" points="196.686,-138.5 186.686,-142 196.686,-145.5 196.686,-138.5"/>
</g>
<!-- \\ilAspectSelectInputGUI -->
<g id="node12" class="node"><title>\\ilAspectSelectInputGUI</title>
<polygon fill="none" stroke="black" points="450.5,-268 285.5,-268 285.5,-232 450.5,-232 450.5,-268"/>
<text text-anchor="middle" x="368" y="-247.2" font-family="Courier,monospace" font-size="11.00">ilAspectSelectInputGUI</text>
</g>
<!-- \\ilAspectSelectInputGUI&#45;&gt;\\ilCustomInputGUI -->
<g id="edge11" class="edge"><title>\\ilAspectSelectInputGUI&#45;&gt;\\ilCustomInputGUI</title>
<path fill="none" stroke="black" d="M285.227,-250C256.091,-250 223.137,-250 193.395,-250"/>
<polygon fill="none" stroke="black" points="193.02,-246.5 183.02,-250 193.02,-253.5 193.02,-246.5"/>
</g>
<!-- \\ilObjReviewGUI -->
<g id="node13" class="node"><title>\\ilObjReviewGUI</title>
<polygon fill="none" stroke="black" points="423.5,-106 312.5,-106 312.5,-70 423.5,-70 423.5,-106"/>
<text text-anchor="middle" x="368" y="-85.2" font-family="Courier,monospace" font-size="11.00">ilObjReviewGUI</text>
</g>
<!-- \\ilObjectPluginGUI -->
<g id="node21" class="node"><title>\\ilObjectPluginGUI</title>
<ellipse fill="none" stroke="black" cx="103" cy="-88" rx="79.8859" ry="18"/>
<text text-anchor="middle" x="103" y="-84.3" font-family="Times,serif" font-size="14.00" fill="gray">\ilObjectPluginGUI</text>
</g>
<!-- \\ilObjReviewGUI&#45;&gt;\\ilObjectPluginGUI -->
<g id="edge12" class="edge"><title>\\ilObjReviewGUI&#45;&gt;\\ilObjectPluginGUI</title>
<path fill="none" stroke="black" d="M312.187,-88C277.842,-88 232.769,-88 193.348,-88"/>
<polygon fill="none" stroke="black" points="193.193,-84.5001 183.193,-88 193.193,-91.5001 193.193,-84.5001"/>
</g>
<!-- \\ilObjReview -->
<g id="node14" class="node"><title>\\ilObjReview</title>
<polygon fill="none" stroke="black" points="413.5,-52 322.5,-52 322.5,-16 413.5,-16 413.5,-52"/>
<text text-anchor="middle" x="368" y="-31.2" font-family="Courier,monospace" font-size="11.00">ilObjReview</text>
</g>
<!-- \\ilObjectPlugin -->
<g id="node22" class="node"><title>\\ilObjectPlugin</title>
<ellipse fill="none" stroke="black" cx="103" cy="-34" rx="64.189" ry="18"/>
<text text-anchor="middle" x="103" y="-30.3" font-family="Times,serif" font-size="14.00" fill="gray">\ilObjectPlugin</text>
</g>
<!-- \\ilObjReview&#45;&gt;\\ilObjectPlugin -->
<g id="edge13" class="edge"><title>\\ilObjReview&#45;&gt;\\ilObjectPlugin</title>
<path fill="none" stroke="black" d="M322.386,-34C282.791,-34 224.173,-34 177.634,-34"/>
<polygon fill="none" stroke="black" points="177.597,-30.5001 167.597,-34 177.597,-37.5001 177.597,-30.5001"/>
</g>
</g>
</svg>
