<?xml version="1.0" encoding="UTF-8" standalone="no"?>
<!DOCTYPE svg PUBLIC "-//W3C//DTD SVG 1.1//EN"
 "http://www.w3.org/Graphics/SVG/1.1/DTD/svg11.dtd">
<!-- Generated by graphviz version 2.36.0 (20140111.2315)
 -->
<!-- Title: G Pages: 1 -->
<svg width="602pt" height="366pt"
 viewBox="0.00 0.00 602.00 366.00" xmlns="http://www.w3.org/2000/svg" xmlns:xlink="http://www.w3.org/1999/xlink">
<g id="graph0" class="graph" transform="scale(1 1) rotate(0) translate(4 362)">
<title>G</title>
<polygon fill="white" stroke="none" points="-4,4 -4,-362 598,-362 598,4 -4,4"/>
<g id="clust1" class="cluster"><title>cluster_Global</title>
<path fill="none" stroke="gray" d="M316,-8C316,-8 574,-8 574,-8 580,-8 586,-14 586,-20 586,-20 586,-338 586,-338 586,-344 580,-350 574,-350 574,-350 316,-350 316,-350 310,-350 304,-344 304,-338 304,-338 304,-20 304,-20 304,-14 310,-8 316,-8"/>
<text text-anchor="middle" x="445" y="-337.2" font-family="Times,serif" font-size="11.00" fill="gray">Global</text>
</g>
<!-- \\assReviewableMultipleChoiceGUI -->
<g id="node1" class="node"><title>\\assReviewableMultipleChoiceGUI</title>
<polygon fill="none" stroke="black" points="554.5,-322 335.5,-322 335.5,-286 554.5,-286 554.5,-322"/>
<text text-anchor="middle" x="445" y="-301.2" font-family="Courier,monospace" font-size="11.00">assReviewableMultipleChoiceGUI</text>
</g>
<!-- \\assMultipleChoiceGUI -->
<g id="node7" class="node"><title>\\assMultipleChoiceGUI</title>
<ellipse fill="none" stroke="black" cx="120" cy="-304" rx="94.7833" ry="18"/>
<text text-anchor="middle" x="120" y="-300.3" font-family="Times,serif" font-size="14.00" fill="gray">\assMultipleChoiceGUI</text>
</g>
<!-- \\assReviewableMultipleChoiceGUI&#45;&gt;\\assMultipleChoiceGUI -->
<g id="edge1" class="edge"><title>\\assReviewableMultipleChoiceGUI&#45;&gt;\\assMultipleChoiceGUI</title>
<path fill="none" stroke="black" d="M335.097,-304C299.675,-304 260.464,-304 225.381,-304"/>
<polygon fill="none" stroke="black" points="225.12,-300.5 215.12,-304 225.12,-307.5 225.12,-300.5"/>
</g>
<!-- \\assReviewableMultipleChoice -->
<g id="node2" class="node"><title>\\assReviewableMultipleChoice</title>
<polygon fill="none" stroke="black" points="544.5,-268 345.5,-268 345.5,-232 544.5,-232 544.5,-268"/>
<text text-anchor="middle" x="445" y="-247.2" font-family="Courier,monospace" font-size="11.00">assReviewableMultipleChoice</text>
</g>
<!-- \\assMultipleChoice -->
<g id="node8" class="node"><title>\\assMultipleChoice</title>
<ellipse fill="none" stroke="black" cx="120" cy="-250" rx="79.0865" ry="18"/>
<text text-anchor="middle" x="120" y="-246.3" font-family="Times,serif" font-size="14.00" fill="gray">\assMultipleChoice</text>
</g>
<!-- \\assReviewableMultipleChoice&#45;&gt;\\assMultipleChoice -->
<g id="edge2" class="edge"><title>\\assReviewableMultipleChoice&#45;&gt;\\assMultipleChoice</title>
<path fill="none" stroke="black" d="M345.334,-250C302.058,-250 251.649,-250 209.591,-250"/>
<polygon fill="none" stroke="black" points="209.366,-246.5 199.366,-250 209.366,-253.5 209.366,-246.5"/>
</g>
<!-- \\ilassReviewableMultipleChoicePlugin -->
<g id="node3" class="node"><title>\\ilassReviewableMultipleChoicePlugin</title>
<polygon fill="none" stroke="black" points="571.5,-214 318.5,-214 318.5,-178 571.5,-178 571.5,-214"/>
<text text-anchor="middle" x="445" y="-193.2" font-family="Courier,monospace" font-size="11.00">ilassReviewableMultipleChoicePlugin</text>
</g>
<!-- \\ilQuestionsPlugin -->
<g id="node9" class="node"><title>\\ilQuestionsPlugin</title>
<ellipse fill="none" stroke="black" cx="120" cy="-196" rx="76.0865" ry="18"/>
<text text-anchor="middle" x="120" y="-192.3" font-family="Times,serif" font-size="14.00" fill="gray">\ilQuestionsPlugin</text>
</g>
<!-- \\ilassReviewableMultipleChoicePlugin&#45;&gt;\\ilQuestionsPlugin -->
<g id="edge3" class="edge"><title>\\ilassReviewableMultipleChoicePlugin&#45;&gt;\\ilQuestionsPlugin</title>
<path fill="none" stroke="black" d="M318.195,-196C280.792,-196 240.7,-196 206.499,-196"/>
<polygon fill="none" stroke="black" points="206.083,-192.5 196.083,-196 206.083,-199.5 206.083,-192.5"/>
</g>
<!-- \\assReviewableMultipleChoiceExport -->
<g id="node4" class="node"><title>\\assReviewableMultipleChoiceExport</title>
<polygon fill="none" stroke="black" points="564.5,-160 325.5,-160 325.5,-124 564.5,-124 564.5,-160"/>
<text text-anchor="middle" x="445" y="-139.2" font-family="Courier,monospace" font-size="11.00">assReviewableMultipleChoiceExport</text>
</g>
<!-- \\assMultipleChoiceExport -->
<g id="node10" class="node"><title>\\assMultipleChoiceExport</title>
<ellipse fill="none" stroke="black" cx="120" cy="-142" rx="103.182" ry="18"/>
<text text-anchor="middle" x="120" y="-138.3" font-family="Times,serif" font-size="14.00" fill="gray">\assMultipleChoiceExport</text>
</g>
<!-- \\assReviewableMultipleChoiceExport&#45;&gt;\\assMultipleChoiceExport -->
<g id="edge4" class="edge"><title>\\assReviewableMultipleChoiceExport&#45;&gt;\\assMultipleChoiceExport</title>
<path fill="none" stroke="black" d="M325.103,-142C295.255,-142 263.315,-142 233.776,-142"/>
<polygon fill="none" stroke="black" points="233.435,-138.5 223.434,-142 233.434,-145.5 233.435,-138.5"/>
</g>
<!-- \\ilAssReviewableMultipleChoiceFeedback -->
<g id="node5" class="node"><title>\\ilAssReviewableMultipleChoiceFeedback</title>
<polygon fill="none" stroke="black" points="578,-106 312,-106 312,-70 578,-70 578,-106"/>
<text text-anchor="middle" x="445" y="-85.2" font-family="Courier,monospace" font-size="11.00">ilAssReviewableMultipleChoiceFeedback</text>
</g>
<!-- \\ilAssMultipleChoiceFeedback -->
<g id="node11" class="node"><title>\\ilAssMultipleChoiceFeedback</title>
<ellipse fill="none" stroke="black" cx="120" cy="-88" rx="120.479" ry="18"/>
<text text-anchor="middle" x="120" y="-84.3" font-family="Times,serif" font-size="14.00" fill="gray">\ilAssMultipleChoiceFeedback</text>
</g>
<!-- \\ilAssReviewableMultipleChoiceFeedback&#45;&gt;\\ilAssMultipleChoiceFeedback -->
<g id="edge5" class="edge"><title>\\ilAssReviewableMultipleChoiceFeedback&#45;&gt;\\ilAssMultipleChoiceFeedback</title>
<path fill="none" stroke="black" d="M311.692,-88C291.497,-88 270.672,-88 250.537,-88"/>
<polygon fill="none" stroke="black" points="250.398,-84.5001 240.398,-88 250.398,-91.5001 250.398,-84.5001"/>
</g>
<!-- \\assReviewableMultipleChoiceImport -->
<g id="node6" class="node"><title>\\assReviewableMultipleChoiceImport</title>
<polygon fill="none" stroke="black" points="564.5,-52 325.5,-52 325.5,-16 564.5,-16 564.5,-52"/>
<text text-anchor="middle" x="445" y="-31.2" font-family="Courier,monospace" font-size="11.00">assReviewableMultipleChoiceImport</text>
</g>
<!-- \\assMultipleChoiceImport -->
<g id="node12" class="node"><title>\\assMultipleChoiceImport</title>
<ellipse fill="none" stroke="black" cx="120" cy="-34" rx="103.982" ry="18"/>
<text text-anchor="middle" x="120" y="-30.3" font-family="Times,serif" font-size="14.00" fill="gray">\assMultipleChoiceImport</text>
</g>
<!-- \\assReviewableMultipleChoiceImport&#45;&gt;\\assMultipleChoiceImport -->
<g id="edge6" class="edge"><title>\\assReviewableMultipleChoiceImport&#45;&gt;\\assMultipleChoiceImport</title>
<path fill="none" stroke="black" d="M325.103,-34C295.496,-34 263.832,-34 234.493,-34"/>
<polygon fill="none" stroke="black" points="234.219,-30.5001 224.219,-34 234.219,-37.5001 234.219,-30.5001"/>
</g>
</g>
</svg>
